<svg width="100" height="100" viewBox="0 0 100 100" fill="none" xmlns="http://www.w3.org/2000/svg">
<path d="M91.3156 50.0001C91.3156 27.3657 72.9688 9.02197 50.3375 9.02197C27.7063 9.02197 9.35938 27.3657 9.35938 50.0001C9.35938 72.6313 27.7063 90.9782 50.3375 90.9782C72.9688 90.9782 91.3156 72.6313 91.3156 50.0001ZM12.6406 50.0001C12.6406 29.2126 29.5531 12.3001 50.3406 12.3001C71.1281 12.3001 88.0406 29.2126 88.0406 50.0001C88.0406 70.7876 71.1313 87.7001 50.3406 87.7001C29.5531 87.7001 12.6406 70.7876 12.6406 50.0001Z" fill="white"/>
<path d="M67.957 47.5124L70.2758 45.1937L50.3414 25.2593L30.4102 45.1937L32.7289 47.5124L48.7039 31.5374V71.3093H51.982V31.5374L67.957 47.5124Z" fill="white"/>
</svg>
