<svg width="1013" height="699" viewBox="0 0 1013 699" fill="none" xmlns="http://www.w3.org/2000/svg">
<path d="M4 3H99.3252L331.919 592.95L598.829 3H685.439L552.082 292.522L642.951 502.985L598.829 586.952L510.392 383.032L366.236 696H290.52L4 3Z" fill="white"/>
<path d="M426.154 211.282L331.919 8.4524H416.894L467.553 123.498L426.154 211.282Z" fill="white"/>
<path d="M722.48 696H642.951H632.057L909.862 8.4524H1009L722.48 696Z" fill="white"/>
<path d="M552.082 292.522L685.439 3H598.829L331.919 592.95L99.3252 3H4L290.52 696H366.236L510.392 383.032M552.082 292.522L642.951 502.985L598.829 586.952L510.392 383.032M552.082 292.522L510.392 383.032M331.919 8.4524L426.154 211.282L467.553 123.498L416.894 8.4524H331.919ZM642.951 696H722.48L1009 8.4524H909.862L632.057 696H642.951Z" stroke="white" stroke-width="5"/>
</svg>
