<svg width="18" height="16" viewBox="0 0 18 16" fill="none" xmlns="http://www.w3.org/2000/svg">
<path d="M10.8504 2.77092C9.28336 3.44451 6.15058 4.8403 1.45341 6.95691C0.690688 7.27079 0.290529 7.57772 0.254273 7.87772C0.192503 8.38603 0.807513 8.58603 1.64274 8.85685C1.75688 8.89435 1.87505 8.93185 1.9959 8.97352C2.81905 9.2499 3.92553 9.5735 4.50026 9.586C5.02261 9.59711 5.60539 9.3749 6.2486 8.91935C10.6369 5.85416 12.9023 4.3056 13.0446 4.27226C13.1453 4.24865 13.285 4.2181 13.379 4.3056C13.4729 4.3917 13.4635 4.55559 13.4542 4.60003C13.3924 4.86808 10.9834 7.18607 9.73455 8.38603C9.34513 8.75963 9.06986 9.02491 9.01346 9.08601C8.88723 9.22073 8.75832 9.3499 8.63478 9.4735C7.86938 10.2346 7.29734 10.8068 8.66701 11.7401C9.30585 12.1757 9.82063 12.5379 10.3306 12.8967L10.3764 12.929C10.9498 13.3331 11.5218 13.7359 12.2631 14.2386C12.4511 14.3664 12.631 14.4984 12.8069 14.6275C13.4743 15.1206 14.0745 15.5622 14.8158 15.4928C15.2455 15.4511 15.6913 15.0331 15.9169 13.7845C16.45 10.8318 17.5001 4.43754 17.7431 1.8015C17.7579 1.58264 17.7489 1.36275 17.7162 1.14596C17.6967 0.970874 17.6143 0.809768 17.4853 0.694589C17.2933 0.532093 16.9952 0.497372 16.8609 0.50015C16.2553 0.511261 15.326 0.845974 10.8504 2.77092Z" fill="#606060"/>
</svg>
