<svg width="22" height="14" viewBox="0 0 22 14" fill="none" xmlns="http://www.w3.org/2000/svg">
<path d="M21.6997 1.76377C21.6997 1.76377 21.5433 1.31688 20.5713 1.43978L17.3537 1.46212C17.1079 1.4286 16.9291 1.52915 16.9291 1.52915C16.9291 1.52915 16.7392 1.62971 16.6498 1.8755C16.1247 3.22735 15.4544 4.38927 15.4544 4.38927C14.0243 6.82484 13.4434 6.95891 13.2088 6.8025C12.6613 6.45616 12.8065 5.39478 12.8065 4.63507C12.8065 2.26653 13.1641 1.28336 12.1027 1.0264C11.7563 0.948188 11.4994 0.892326 10.5944 0.881154C9.44367 0.869981 8.47168 0.881154 7.92423 1.14929C7.55555 1.32805 7.27624 1.73026 7.44382 1.7526C7.6561 1.78612 8.13651 1.88667 8.39347 2.23301C8.39347 2.23301 8.67278 2.69108 8.71747 3.69659C8.84037 6.4785 8.27058 6.82484 8.27058 6.82484C7.83486 7.05946 7.07514 6.66843 5.9579 4.36693C5.9579 4.36693 5.30991 3.22735 4.80715 1.97605C4.71777 1.74143 4.53902 1.61853 4.53902 1.61853C4.53902 1.61853 4.33791 1.46212 4.04743 1.41743L0.986214 1.43978C0.516976 1.43978 0.349391 1.65205 0.349391 1.65205C0.349391 1.65205 0.181806 1.83081 0.338218 2.19949C2.7291 7.81918 5.45515 10.6347 5.45515 10.6347C5.45515 10.6347 7.94658 13.2378 10.7732 13.0591H12.058C12.449 13.0255 12.6501 12.8133 12.6501 12.8133C12.6501 12.8133 12.8289 12.6122 12.8177 12.2435C12.7954 10.5229 13.5998 10.266 13.5998 10.266C14.3818 10.0202 15.3874 11.9306 16.4599 12.668C16.4599 12.668 17.2755 13.2266 17.89 13.1037L20.7501 13.0591C22.2583 13.0479 21.5433 11.7966 21.5433 11.7966C21.4875 11.696 21.1299 10.9251 19.4094 9.32745C17.6218 7.66277 17.8564 7.93091 20.0239 5.04844C21.3422 3.29438 21.8673 2.22184 21.6997 1.76377Z" fill="#606060"/>
</svg>
