<svg width="23" height="17" viewBox="0 0 23 17" fill="none" xmlns="http://www.w3.org/2000/svg">
<path fill-rule="evenodd" clip-rule="evenodd" d="M11.2378 0.166504C10.2025 0.169993 6.24236 0.199264 3.47603 0.406285C3.02778 0.461347 2.05106 0.465525 1.17951 1.41C0.491964 2.12864 0.268849 3.76248 0.268849 3.76248C0.268849 3.76248 0.0592135 5.51969 0.0410156 7.35213V9.64119C0.0592135 11.4737 0.268849 13.2309 0.268849 13.2309C0.268849 13.2309 0.491964 14.8641 1.17951 15.5834C2.05106 16.5279 3.19696 16.4979 3.70722 16.5962C5.38429 16.7628 10.5132 16.8241 11.3747 16.8332H11.8007C12.904 16.8269 16.794 16.7914 19.5213 16.5871C19.9696 16.532 20.9463 16.5279 21.8179 15.5834C22.5054 14.8641 22.7285 13.2309 22.7285 13.2309C22.7285 13.2309 22.9577 11.3134 22.9577 9.39588V7.59754C22.9577 5.67931 22.7285 3.76248 22.7285 3.76248C22.7285 3.76248 22.5054 2.12864 21.8179 1.41C20.9463 0.465525 19.9696 0.461347 19.5213 0.406285C16.755 0.199264 12.7949 0.169993 11.7588 0.166504H11.2378ZM9.13138 4.91659L15.3247 8.25827L9.13272 11.5778L9.13138 4.91659Z" fill="#606060"/>
</svg>
